<svg width="1446" height="210" viewBox="0 0 1446 210" fill="none" xmlns="http://www.w3.org/2000/svg">
<path d="M1445.84 3.41211H0.564697V139.035H1445.84V3.41211Z" fill="#FE9D2C"/>
<path d="M1445.84 0H0.564697V72.5708H1445.84V0Z" fill="#FBDB89"/>
<path d="M1445.84 10.2344H0.564697V16.0919H1445.84V10.2344Z" fill="#F9E4A9"/>
<path fill-rule="evenodd" clip-rule="evenodd" d="M302.337 24.1293L729.328 52.9513L1438.78 48.8743L1135.74 22.7148L302.337 24.1293Z" fill="#FE9D2C"/>
<path d="M1445.84 103.705H0.564697V128.55H1445.84V103.705Z" fill="#FBDB89"/>
<path fill-rule="evenodd" clip-rule="evenodd" d="M1 80.3848L61.2083 77.2988C121.417 74.2127 241.833 68.0405 362.25 80.3848C482.667 92.7291 603.083 123.59 723.5 123.59C843.917 123.59 964.333 92.7291 1084.75 86.557C1205.17 80.3848 1325.58 98.9013 1385.79 108.16L1446 117.418V210H1385.79C1325.58 210 1205.17 210 1084.75 210C964.333 210 843.917 210 723.5 210C603.083 210 482.667 210 362.25 210C241.833 210 121.417 210 61.2083 210H1V80.3848Z" fill="white"/>
</svg>
